<svg xmlns:inkscape="http://www.inkscape.org/namespaces/inkscape" xmlns:sodipodi="http://sodipodi.sourceforge.net/DTD/sodipodi-0.dtd" xmlns:xlink="http://www.w3.org/1999/xlink" xmlns="http://www.w3.org/2000/svg" xmlns:svg="http://www.w3.org/2000/svg" version="1.1" id="svg1" width="246.12337" height="236.28181" viewBox="0 0 246.12337 236.28181" sodipodi:docname="houx-planty.svg" inkscape:version="1.3.2 (091e20e, 2023-11-25, custom)"><defs id="defs1"><linearGradient id="paint0_linear_0_234" x1="8.8136902" y1="0" x2="8.8136902" y2="6.7398801" gradientUnits="userSpaceOnUse"><stop stop-color="#A83143" id="stop11"></stop><stop offset="1" stop-color="#D33F56" id="stop12"></stop></linearGradient><linearGradient inkscape:collect="always" xlink:href="#paint0_linear_0_234" id="linearGradient9" gradientUnits="userSpaceOnUse" x1="8.8136902" y1="0" x2="8.8136902" y2="6.7398801" gradientTransform="matrix(1.3804524,0,0,1.3323083,-116.42541,-174.99008)"></linearGradient><linearGradient inkscape:collect="always" xlink:href="#paint0_linear_0_234" id="linearGradient10" gradientUnits="userSpaceOnUse" x1="8.8136902" y1="0" x2="8.8136902" y2="6.7398801" gradientTransform="matrix(1.3804524,0,0,1.3323083,-104.11567,-92.554762)"></linearGradient></defs><g id="g1" inkscape:groupmode="layer" inkscape:label="1"><path id="path1" d="M 0.582041,59.008579 C 4.75311,85.524666 19.551855,100.87061 26.549458,105.36737 33.540615,100.87061 48.161438,85.524666 52.332504,59.008579 56.554783,32.166924 36.980831,17.091026 26.563608,12.812561 16.143843,17.091026 -3.640242,32.166924 0.582041,59.008579 Z" style="fill:#224827;fill-opacity:1;fill-rule:nonzero;stroke:none" transform="matrix(-0.85705067,1.021392,1.021392,0.85705067,119.82057,27.330119)"></path><path id="path2" d="m 25.411499,68.002876 c 0,0.418946 0.339624,0.758568 0.758574,0.758568 h 0.758575 c 0.418947,0 0.758574,-0.339622 0.758574,-0.758575 V -36.680405 h -2.275723 z" style="fill:#224827;fill-opacity:1;fill-rule:nonzero;stroke:none" transform="matrix(-0.85705067,1.021392,1.021392,0.85705067,156.67766,58.256897)"></path><path id="path3" d="M 0.230144,21.749392 C 1.87942,32.234074 7.730969,38.301991 10.49788,40.080048 13.262242,38.301991 19.04344,32.234074 20.692715,21.749392 22.36224,11.135975 14.622533,5.174839 10.503475,3.483097 6.383412,5.174839 -1.439382,11.135975 0.230144,21.749392 Z" style="fill:#3d8146;fill-opacity:1;fill-rule:nonzero;stroke:none" transform="matrix(1.3130773,-0.23153067,-0.23153067,-1.3130773,99.345815,77.968689)"></path><path id="path4" d="m 10.047921,40.615562 c 0,0.165657 0.134291,0.299946 0.299947,0.299946 h 0.299947 c 0.165656,0 0.299947,-0.134292 0.299947,-0.299946 v -41.39265 h -0.899841 z" style="fill:#3d8146;fill-opacity:1;fill-rule:nonzero;stroke:none" transform="matrix(1.3130773,-0.23153067,-0.23153067,-1.3130773,99.586924,79.3361)"></path><path id="path5" d="M 0.482,48.457603 C 3.936146,70.416107 16.191288,83.12439 21.986145,86.848244 27.775663,83.12439 39.883465,70.416107 43.337608,48.457603 46.834164,26.229488 30.624575,13.744835 21.997862,10.201752 13.369042,13.744835 -3.014558,26.229488 0.482,48.457603 Z m 20.561777,37.331185 c 0,0.346939 0.28125,0.628189 0.628191,0.628189 h 0.62819 c 0.346941,0 0.628191,-0.28125 0.628191,-0.628189 V -0.901535 h -1.884572 z" style="fill:#326238;fill-opacity:1;fill-rule:evenodd;stroke:none" transform="matrix(0.66666667,1.1547,-1.1547,0.66666667,124.87307,67.642904)"></path><path id="path6" d="M 0.424617,49.760612 C 3.467542,69.104927 14.263689,80.30027 19.368658,83.580795 24.468925,80.30027 35.135273,69.104927 38.178196,49.760612 41.25848,30.178791 26.978668,19.180458 19.378981,16.059181 11.777436,19.180458 -2.65567,30.178791 0.424617,49.760612 Z m 18.113864,32.886857 c 0,0.305633 0.247766,0.553398 0.553404,0.553398 h 0.553403 c 0.305636,0 0.553404,-0.247765 0.553404,-0.553398 V 6.277756 h -1.660211 z" style="fill:#326238;fill-opacity:1;fill-rule:evenodd;stroke:none" transform="matrix(-1.3130773,0.23153067,0.23153067,1.3130773,169.12653,100.35158)"></path><path id="path7" d="M 0.322743,40.627319 C 2.635608,55.33054 10.84154,63.839893 14.721724,66.333351 18.598331,63.839893 26.705606,55.33054 29.018471,40.627319 31.359732,25.743576 20.505938,17.383965 14.729569,15.011551 8.95179,17.383965 -2.018521,25.743576 0.322743,40.627319 Z m 13.767979,24.996628 c 0,0.232308 0.188323,0.420632 0.420631,0.420632 h 0.420631 c 0.232308,0 0.420631,-0.188324 0.420631,-0.420632 V 7.576889 h -1.261893 z" style="fill:#326238;fill-opacity:1;fill-rule:evenodd;stroke:none" transform="matrix(-1.021392,0.85705067,-0.85705067,-1.021392,132.04474,87.903759)"></path><ellipse cx="-104.25851" cy="-161.86606" rx="12.166883" ry="13.124026" transform="matrix(-0.16739393,-0.98589009,-0.98364453,0.1801206,0,0)" fill="url(#paint0_linear_0_234)" id="ellipse10" style="display:inline;fill:url(#linearGradient9);stroke-width:1.35617"></ellipse><ellipse cx="-91.948776" cy="-79.43074" rx="12.166883" ry="13.124026" transform="matrix(-0.16739393,-0.98589009,-0.98364453,0.1801206,0,0)" fill="url(#paint1_linear_0_234)" id="ellipse11" style="display:inline;fill:url(#linearGradient10);stroke-width:1.35617"></ellipse></g></svg>