<svg xmlns="http://www.w3.org/2000/svg" width="185" height="178" viewBox="0 0 185 178" fill="none"><path d="M134.695 58.8735C152.326 79.1129 154.569 100.314 153.516 108.565C145.578 111.03 124.424 112.366 101.43 98.5167C78.1542 84.4976 79.1873 59.8125 82.6059 49.0823C92.5811 43.8504 116.847 38.3856 134.695 58.8735Z" fill="#224827"></path><path d="M153.268 106.87C153.588 107.14 153.63 107.618 153.361 107.939L152.873 108.52C152.604 108.841 152.126 108.883 151.805 108.614L71.6127 41.3247L73.0755 39.5814L153.268 106.87Z" fill="#224827"></path><path d="M70.9595 37.0176C70.7631 26.4059 75.472 19.414 77.8882 17.1825C80.9193 18.4535 87.6663 23.4254 91.1112 33.4644C94.5984 43.6266 88.0114 50.8412 84.2487 53.2225C79.8974 52.2719 71.1583 47.7597 70.9595 37.0176Z" fill="#3D8146"></path><path d="M77.5329 17.7588C77.5041 17.5957 77.6131 17.4401 77.7762 17.4113L78.0716 17.3593C78.2347 17.3305 78.3903 17.4394 78.4191 17.6026L85.6068 58.3664L84.7206 58.5226L77.5329 17.7588Z" fill="#3D8146"></path><path d="M51.9305 75.3785C34.641 89.3491 29.7629 106.316 29.4353 113.197C35.5551 116.349 52.6146 120.48 73.3583 112.493C94.3567 104.407 97.064 84.1263 95.819 74.8838C88.4362 69.1826 69.4324 61.2363 51.9305 75.3785Z" fill="#326238"></path><path d="M29.8817 111.851C29.5812 112.025 29.4783 112.409 29.6517 112.709L29.9658 113.253C30.1393 113.554 30.5235 113.657 30.824 113.483L105.9 70.138L104.958 68.5059L29.8817 111.851Z" fill="#326238"></path><path d="M135.068 124.342C135.43 143.921 126.742 156.821 122.284 160.938C116.692 158.593 104.244 149.42 97.8878 130.898C91.454 112.149 103.607 98.8376 110.549 94.4441C118.577 96.1979 134.701 104.523 135.068 124.342Z" fill="#326238"></path><path d="M122.94 159.875C122.993 160.176 122.792 160.463 122.491 160.516L121.946 160.612C121.645 160.665 121.358 160.464 121.305 160.163L108.043 84.9536L109.678 84.6653L122.94 159.875Z" fill="#326238"></path><path d="M72.6718 35.013C61.449 25.2364 49.6932 23.9925 45.1181 24.5765C43.7512 28.9785 43.0103 40.7083 50.6896 53.4583C58.4632 66.3648 72.1511 65.792 78.1011 63.8963C81.0021 58.3651 84.0324 44.9097 72.6718 35.013Z" fill="#326238"></path><path d="M46.0574 24.7144C45.9081 24.5364 45.6428 24.5132 45.4648 24.6625L45.1426 24.9329C44.9646 25.0822 44.9414 25.3475 45.0908 25.5255L82.4027 69.9921L83.3694 69.181L46.0574 24.7144Z" fill="#326238"></path><ellipse cx="8.81369" cy="9.85059" rx="8.81369" ry="9.85059" transform="matrix(-0.173648 -0.984808 -0.984808 0.173648 143.807 62.3254)" fill="url(#paint0_linear_0_234)"></ellipse><ellipse cx="8.81369" cy="9.85059" rx="8.81369" ry="9.85059" transform="matrix(-0.173648 -0.984808 -0.984808 0.173648 81.3245 64.288)" fill="url(#paint1_linear_0_234)"></ellipse><defs><linearGradient id="paint0_linear_0_234" x1="8.81369" y1="0" x2="8.81369" y2="6.73988" gradientUnits="userSpaceOnUse"><stop stop-color="#A83143"></stop><stop offset="1" stop-color="#D33F56"></stop></linearGradient><linearGradient id="paint1_linear_0_234" x1="8.81369" y1="0" x2="8.81369" y2="6.73988" gradientUnits="userSpaceOnUse"><stop stop-color="#A83143"></stop><stop offset="1" stop-color="#D33F56"></stop></linearGradient></defs></svg>